<svg width="21" height="20" viewBox="0 0 21 20" fill="none" xmlns="http://www.w3.org/2000/svg">
<path d="M3.93419 13.2962L7.87853 11.0903L7.94452 10.8981L7.87853 10.7918H7.68562L7.0257 10.7513L4.77179 10.6906L2.81739 10.6097L0.923899 10.5085L0.446721 10.4073L0 9.82039L0.0456873 9.52694L0.446721 9.25879L1.02035 9.30939L2.28944 9.3954L4.19308 9.52694L5.57385 9.60789L7.61963 9.82039H7.94452L7.99021 9.68884L7.87853 9.60789L7.79223 9.52694L5.8226 8.19631L3.69052 6.78978L2.57372 5.98027L1.96963 5.57045L1.66505 5.18593L1.53306 4.34607L2.08131 3.74399L2.81739 3.79459L3.00521 3.84518L3.75144 4.4169L5.34542 5.64634L7.42673 7.1743L7.73131 7.42727L7.85314 7.34126L7.86837 7.28055L7.73131 7.05287L6.59928 5.01391L5.3911 2.93954L4.85301 2.07943L4.71087 1.56337C4.66011 1.35087 4.62457 1.17379 4.62457 0.956236L5.24897 0.111308L5.59416 0L6.42668 0.111308L6.77695 0.414875L7.29474 1.59373L8.13234 3.45054L9.43189 5.97521L9.81262 6.72401L10.0157 7.41715L10.0918 7.62965H10.2238V7.50822L10.3304 6.08652L10.5284 4.34101L10.7213 2.09461L10.7873 1.46218L11.102 0.703263L11.7264 0.293448L12.2137 0.526183L12.6148 1.0979L12.5589 1.46724L12.3203 3.01037L11.8533 5.42879L11.5487 7.04781H11.7264L11.9295 6.84543L12.7518 5.75765L14.1326 4.03744L14.7418 3.35441L15.4525 2.60056L15.9093 2.24134H16.7723L17.4069 3.18239L17.1226 4.15381L16.2342 5.277L15.4982 6.22818L14.4423 7.64483L13.7823 8.77814L13.8433 8.86921L14.0006 8.85403L16.3865 8.34809L17.6759 8.11536L19.2141 7.85226L19.9095 8.17607L19.9857 8.50493L19.7115 9.17784L18.0668 9.5826L16.1378 9.96711L13.2646 10.6451L13.229 10.6704L13.2696 10.721L14.5641 10.8424L15.1174 10.8728H16.4728L18.9958 11.06L19.6557 11.4951L20.0517 12.0263L19.9857 12.4311L18.9704 12.9471L17.5998 12.6233L14.4017 11.8644L13.3052 11.5912H13.1529V11.6823L14.0666 12.5727L15.7418 14.0804L17.8384 16.0233L17.945 16.5039L17.6759 16.8834L17.3916 16.8429L15.5489 15.4617L14.8382 14.8394L13.229 13.4885H13.1224V13.6302L13.493 14.1715L15.4525 17.106L15.554 18.0066L15.4119 18.3L14.9042 18.4771L14.3458 18.3759L13.1986 16.7721L12.0158 14.9658L11.0614 13.3468L10.9447 13.4126L10.3812 19.4586L10.1172 19.7673L9.50804 20L9.0004 19.6155L8.73136 18.9932L9.0004 17.7637L9.32529 16.1599L9.58926 14.8849L9.82785 13.3013L9.96999 12.7751L9.95984 12.7397L9.84308 12.7549L8.64506 14.3941L6.82264 16.848L5.38095 18.386L5.03576 18.5226L4.43675 18.214L4.49259 17.6625L4.82763 17.1718L6.82264 14.642L8.02574 13.0736L8.80243 12.168L8.79735 12.0364H8.75166L3.45193 15.4667L2.50773 15.5882L2.10162 15.2087L2.15238 14.5864L2.34528 14.384L3.93926 13.2912L3.93419 13.2962Z" fill="#D97757"/>
</svg>
