<svg width="64" height="64" viewBox="0 0 64 64" fill="none" xmlns="http://www.w3.org/2000/svg">
<g clip-path="url(#clip0_128_198)">
<path d="M13.1143 46.2133H1.39432C1.22175 46.2133 1.05625 46.2819 0.934228 46.4039C0.812205 46.5259 0.743652 46.6914 0.743652 46.864V51.3973C0.748403 51.603 0.792768 51.8058 0.874319 51.9946L5.50899 61.24C5.64654 61.5908 5.88665 61.8921 6.19799 62.1044C6.50934 62.3168 6.87745 62.4304 7.25432 62.4304C7.63119 62.4304 7.9993 62.3168 8.31065 62.1044C8.62199 61.8921 8.8621 61.5908 8.99965 61.24L13.765 51.9946C13.8025 51.7973 13.8025 51.5946 13.765 51.3973V46.864C13.765 46.6914 13.6964 46.5259 13.5744 46.4039C13.4524 46.2819 13.2869 46.2133 13.1143 46.2133ZM1.39432 17.568H13.1143C13.4743 17.568 13.765 17.2746 13.765 16.9173V15.0133C13.765 9.99997 8.33832 6.8693 3.99965 9.3733C3.00938 9.94504 2.18726 10.7676 1.61611 11.7583C1.04497 12.7489 0.744961 13.8725 0.746319 15.016V16.9173C0.746319 17.2773 1.03432 17.568 1.39432 17.568Z" fill="#A1B090"/>
<path d="M62.8263 59.104L59.493 53.896C59.4371 53.8015 59.4077 53.6937 59.4077 53.584C59.4077 53.4742 59.4371 53.3665 59.493 53.272C59.7745 52.6873 59.901 52.04 59.8604 51.3923C59.8197 50.7446 59.6133 50.1183 59.261 49.5733L40.2477 19.4666C40.1295 19.2839 39.9677 19.1336 39.7768 19.0293C39.5858 18.925 39.3719 18.87 39.1543 18.8693H23.533C23.2656 18.87 23.0049 18.9527 22.786 19.1063C22.5672 19.2598 22.4007 19.4768 22.309 19.728L17.4397 32.9067C17.0183 33.8133 16.1437 34.4186 15.1463 34.496H13.7677V22.1226C13.7669 21.9505 13.6981 21.7857 13.5761 21.6643C13.4542 21.5428 13.2891 21.4746 13.117 21.4747H1.39432C1.22175 21.4747 1.05625 21.5432 0.934228 21.6652C0.812205 21.7872 0.743652 21.9527 0.743652 22.1253V41.656C0.743652 42.016 1.03699 42.3066 1.39432 42.3066H20.9277C21.9479 42.268 22.9358 41.9388 23.7753 41.3577C24.6148 40.7766 25.2709 39.9679 25.6663 39.0267L31.1597 24.3653C31.2193 24.2747 31.301 24.2007 31.3971 24.1503C31.4932 24.0999 31.6005 24.0748 31.709 24.0773C31.8317 24.0666 31.9549 24.0901 32.0651 24.1452C32.1752 24.2003 32.2679 24.2848 32.333 24.3893L51.0316 54.808C51.7756 56.008 53.109 56.7173 54.5197 56.656C54.6349 56.6487 54.7498 56.6742 54.8513 56.7294C54.9527 56.7846 55.0365 56.8673 55.093 56.968L58.453 62.1786C58.6412 62.4658 58.8842 62.7131 59.1679 62.9063C59.4517 63.0996 59.7708 63.2351 60.107 63.305C60.4431 63.375 60.7897 63.3781 61.1271 63.314C61.4644 63.25 61.7858 63.1202 62.073 62.932C62.3601 62.7438 62.6074 62.5008 62.8007 62.217C62.9939 61.9332 63.1294 61.6141 63.1994 61.278C63.2693 60.9419 63.2724 60.5952 63.2084 60.2579C63.1444 59.9206 63.0145 59.5991 62.8263 59.312V59.104ZM23.5303 14.9626H39.157C39.877 14.9626 40.4583 14.3813 40.4583 13.6613V9.75465C40.4583 2.73865 32.8636 -1.64802 26.7863 1.86132C25.4006 2.66135 24.2498 3.81188 23.4494 5.19738C22.649 6.58288 22.2272 8.15457 22.2263 9.75465V13.6613C22.2263 14.3813 22.8103 14.9626 23.5303 14.9626ZM31.3463 4.54665C31.6953 4.53548 32.0429 4.59457 32.3686 4.72041C32.6943 4.84624 32.9914 5.03626 33.2422 5.27917C33.493 5.52207 33.6924 5.81291 33.8286 6.13441C33.9648 6.45591 34.035 6.8015 34.035 7.15065C34.035 7.4998 33.9648 7.84539 33.8286 8.16689C33.6924 8.48838 33.493 8.77922 33.2422 9.02213C32.9914 9.26504 32.6943 9.45505 32.3686 9.58089C32.0429 9.70673 31.6953 9.76582 31.3463 9.75465C30.6701 9.73301 30.0289 9.44917 29.5582 8.96319C29.0875 8.47721 28.8243 7.82719 28.8243 7.15065C28.8243 6.4741 29.0875 5.82409 29.5582 5.3381C30.0289 4.85212 30.6701 4.56829 31.3463 4.54665Z" fill="#A1B090"/>
</g>
<defs>
<clipPath id="clip0_128_198">
<rect width="64" height="64" fill="white"/>
</clipPath>
</defs>
</svg>
