<svg width="23" height="24" viewBox="0 0 23 24" fill="none" xmlns="http://www.w3.org/2000/svg">
<mask id="mask0_124_146" style="mask-type:luminance" maskUnits="userSpaceOnUse" x="-1" y="0" width="24" height="24">
<path d="M-0.00195312 0H22.9071V24H-0.00195312V0Z" fill="white"/>
</mask>
<g mask="url(#mask0_124_146)">
<path d="M17.377 11.0765C17.3194 9.54501 16.6617 8.09569 15.5431 7.03502C14.4245 5.97435 12.9327 5.38547 11.3831 5.39291C7.80428 5.39291 5.38862 8.59909 5.38862 11.9029C5.38862 15.8378 7.99124 18.6556 12.4519 18.6556H20.909C19.9331 20.283 18.5462 21.6313 16.8842 22.5683C15.2222 23.5053 13.3425 23.9986 11.4294 24C5.10955 24 -0.00195312 18.6065 -0.00195312 12C-0.00195312 5.39345 5.10955 0 11.4294 0C17.7493 0 22.9071 5.39291 22.9071 12C22.8917 13.266 22.7041 14.5242 22.3496 15.7407H9.5708V14.4289L14.0784 14.2827C16.3556 14.1862 17.377 12.9736 17.377 11.0765Z" fill="#01009A"/>
</g>
</svg>
