<svg width="14" height="20" viewBox="0 0 14 20" fill="none" xmlns="http://www.w3.org/2000/svg">
<g clip-path="url(#clip0_124_112)">
<path d="M6.66699 10C6.66699 8.17784 8.14417 6.70062 9.96639 6.70062C11.7886 6.70062 13.2658 8.17784 13.2658 10C13.2658 11.8222 11.7886 13.2994 9.96639 13.2994C8.14417 13.2994 6.66699 11.8222 6.66699 10Z" fill="#1ABCFE"/>
<path d="M0.0683594 16.5988C0.0683594 14.7766 1.54555 13.2994 3.36776 13.2994H6.66715V16.5988C6.66715 18.421 5.18998 19.8982 3.36776 19.8982C1.54555 19.8982 0.0683594 18.421 0.0683594 16.5988Z" fill="#0ACF83"/>
<path d="M6.66699 0.101807V6.70058H9.96639C11.7886 6.70058 13.2658 5.22341 13.2658 3.4012C13.2658 1.579 11.7886 0.101807 9.96639 0.101807H6.66699Z" fill="#FF7262"/>
<path d="M0.0683594 3.4012C0.0683594 5.22341 1.54555 6.70058 3.36776 6.70058H6.66715V0.101807H3.36776C1.54555 0.101807 0.0683594 1.579 0.0683594 3.4012Z" fill="#F24E1E"/>
<path d="M0.0683594 10C0.0683594 11.8222 1.54555 13.2994 3.36776 13.2994H6.66715V6.70062H3.36776C1.54555 6.70062 0.0683594 8.17784 0.0683594 10Z" fill="#A259FF"/>
</g>
<defs>
<clipPath id="clip0_124_112">
<rect width="13.3333" height="20" fill="white"/>
</clipPath>
</defs>
</svg>
